<svg version="1.1" id="Layer_1" xmlns="http://www.w3.org/2000/svg" x="0" y="0" viewBox="0 0 200 200" xml:space="preserve">
  <style>
    .st1{fill:#fff}
  </style>
  <circle cx="99.6" cy="100" r="97.5" fill="#21b24b" stroke="#fff" stroke-width="3" stroke-miterlimit="10"/>
  <path class="st1" d="M149.5 130.3c-4.4-4.5-9.2-11.1-14-18.4 7.1 2 14.4-1.8 5.1-11.9-4.6-5-9.8-12.8-14.8-21.2 4.9 1.3 9.6-1.9 3.2-9.7-10.3-12.5-24.9-47-24.9-47-2.1-5.8-8.8-5-10.5 0 0 0-15.8 36.4-25 46.8-5.3 5.9-1.7 9.7 2.8 9.9-5.2 8.7-10.5 16.6-14.8 21-8.2 8.3-1 13.1 6.1 12.2-5 7.5-9.9 14.1-14 18.1-15.4 14.8 14.5 19.9 18.5 5.3-4.2 15.6 14.2 14.5 17.5-1.3-4.8 20.6 14.7 16.9 14.8-1.7-.1 18.7 19.3 21.5 15.8.9 3 17.5 21.8 18.5 17.6 1.1 3.6 14.4 33.8 13.6 16.6-4.1z"/>
  <path class="st1" d="M99.6 149.4c-3.8 0-6.8 3-6.8 6.8v19.2c0 3.8 3 6.8 6.8 6.8s6.8-3 6.8-6.8v-19.2c0-3.7-3-6.8-6.8-6.8z"/>
</svg>
